<mxfile host="app.diagrams.net" modified="2022-09-21T02:34:57.231Z" agent="5.0 (Windows NT 10.0; Win64; x64) AppleWebKit/537.36 (KHTML, like Gecko) Chrome/105.0.0.0 Safari/537.36" etag="E2ZJtASqBDhNHHFZwCCJ" version="20.2.8" type="github">
  <diagram id="xsr7pyKk56VdgJoD-DvB" name="Página-1">
    <mxGraphModel dx="1038" dy="571" grid="1" gridSize="10" guides="1" tooltips="1" connect="1" arrows="1" fold="1" page="1" pageScale="1" pageWidth="827" pageHeight="1169" math="0" shadow="0">
      <root>
        <mxCell id="0" />
        <mxCell id="1" parent="0" />
        <mxCell id="JDIDLbVQf-TIVtFOGQAv-1" value="AUTOMÓVILES&amp;nbsp;" style="whiteSpace=wrap;html=1;align=center;strokeColor=#0000CC;fontColor=#0000CC;fillColor=#FFFFFF;" vertex="1" parent="1">
          <mxGeometry x="73" y="200" width="100" height="40" as="geometry" />
        </mxCell>
        <mxCell id="JDIDLbVQf-TIVtFOGQAv-2" value="CLIENTES" style="whiteSpace=wrap;html=1;align=center;strokeColor=#0000CC;fontColor=#0000CC;fillColor=#FFFFFF;" vertex="1" parent="1">
          <mxGeometry x="630" y="200" width="100" height="40" as="geometry" />
        </mxCell>
        <mxCell id="JDIDLbVQf-TIVtFOGQAv-3" value="&lt;font color=&quot;#ff0000&quot;&gt;COMPRA&lt;/font&gt;" style="shape=rhombus;perimeter=rhombusPerimeter;whiteSpace=wrap;html=1;align=center;strokeColor=#FF0000;fontColor=#0000CC;fillColor=#FFFFFF;" vertex="1" parent="1">
          <mxGeometry x="320" y="190" width="120" height="60" as="geometry" />
        </mxCell>
        <mxCell id="JDIDLbVQf-TIVtFOGQAv-4" value="CONCESIONARIO&amp;nbsp;" style="whiteSpace=wrap;html=1;align=center;strokeColor=#0000CC;fontColor=#0000CC;fillColor=#FFFFFF;" vertex="1" parent="1">
          <mxGeometry x="77" y="600" width="106" height="40" as="geometry" />
        </mxCell>
        <mxCell id="JDIDLbVQf-TIVtFOGQAv-5" value="&lt;font color=&quot;#ff0000&quot;&gt;REVISIÓN&amp;nbsp;&lt;/font&gt;" style="shape=rhombus;perimeter=rhombusPerimeter;whiteSpace=wrap;html=1;align=center;strokeColor=#FF0000;fontColor=#0000CC;fillColor=#FFFFFF;" vertex="1" parent="1">
          <mxGeometry x="63" y="400" width="120" height="60" as="geometry" />
        </mxCell>
        <mxCell id="JDIDLbVQf-TIVtFOGQAv-6" value="&lt;font color=&quot;#000000&quot;&gt;MATRICULA&lt;/font&gt;" style="ellipse;whiteSpace=wrap;html=1;align=center;fontStyle=4;strokeColor=#000000;fontColor=#FF0000;fillColor=#FFFFFF;" vertex="1" parent="1">
          <mxGeometry y="120" width="100" height="40" as="geometry" />
        </mxCell>
        <mxCell id="JDIDLbVQf-TIVtFOGQAv-9" value="CÓDIGO&amp;nbsp;" style="ellipse;whiteSpace=wrap;html=1;align=center;fontStyle=4;strokeColor=#000000;fontColor=#000000;fillColor=#FFFFFF;" vertex="1" parent="1">
          <mxGeometry y="680" width="100" height="40" as="geometry" />
        </mxCell>
        <mxCell id="JDIDLbVQf-TIVtFOGQAv-10" value="CÓDIGO&amp;nbsp;" style="ellipse;whiteSpace=wrap;html=1;align=center;fontStyle=4;strokeColor=#000000;fontColor=#000000;fillColor=#FFFFFF;" vertex="1" parent="1">
          <mxGeometry x="727" y="120" width="100" height="40" as="geometry" />
        </mxCell>
        <mxCell id="JDIDLbVQf-TIVtFOGQAv-11" value="" style="endArrow=none;html=1;rounded=0;strokeColor=#FF0000;fontColor=#000000;entryX=0;entryY=0.5;entryDx=0;entryDy=0;" edge="1" parent="1" target="JDIDLbVQf-TIVtFOGQAv-2">
          <mxGeometry relative="1" as="geometry">
            <mxPoint x="440" y="219.5" as="sourcePoint" />
            <mxPoint x="600" y="219.5" as="targetPoint" />
          </mxGeometry>
        </mxCell>
        <mxCell id="JDIDLbVQf-TIVtFOGQAv-12" value="" style="endArrow=none;html=1;rounded=0;strokeColor=#FF0000;fontColor=#000000;" edge="1" parent="1">
          <mxGeometry relative="1" as="geometry">
            <mxPoint x="173" y="219.5" as="sourcePoint" />
            <mxPoint x="320" y="220" as="targetPoint" />
          </mxGeometry>
        </mxCell>
        <mxCell id="JDIDLbVQf-TIVtFOGQAv-13" value="" style="endArrow=none;html=1;rounded=0;strokeColor=#FF0000;fontColor=#000000;exitX=0.5;exitY=0;exitDx=0;exitDy=0;entryX=0.5;entryY=1;entryDx=0;entryDy=0;" edge="1" parent="1" source="JDIDLbVQf-TIVtFOGQAv-5" target="JDIDLbVQf-TIVtFOGQAv-1">
          <mxGeometry relative="1" as="geometry">
            <mxPoint x="120" y="400" as="sourcePoint" />
            <mxPoint x="120" y="240" as="targetPoint" />
          </mxGeometry>
        </mxCell>
        <mxCell id="JDIDLbVQf-TIVtFOGQAv-14" value="" style="endArrow=none;html=1;rounded=0;strokeColor=#FF0000;fontColor=#000000;entryX=0.5;entryY=1;entryDx=0;entryDy=0;" edge="1" parent="1" target="JDIDLbVQf-TIVtFOGQAv-5">
          <mxGeometry relative="1" as="geometry">
            <mxPoint x="123" y="600" as="sourcePoint" />
            <mxPoint x="122.5" y="450" as="targetPoint" />
          </mxGeometry>
        </mxCell>
        <mxCell id="JDIDLbVQf-TIVtFOGQAv-15" value="" style="endArrow=none;html=1;rounded=0;strokeColor=#000000;fontColor=#000000;entryX=0;entryY=1;entryDx=0;entryDy=0;exitX=0.43;exitY=0.035;exitDx=0;exitDy=0;exitPerimeter=0;" edge="1" parent="1" source="JDIDLbVQf-TIVtFOGQAv-9" target="JDIDLbVQf-TIVtFOGQAv-4">
          <mxGeometry relative="1" as="geometry">
            <mxPoint x="-20" y="670" as="sourcePoint" />
            <mxPoint x="140" y="670" as="targetPoint" />
          </mxGeometry>
        </mxCell>
        <mxCell id="JDIDLbVQf-TIVtFOGQAv-16" value="" style="endArrow=none;html=1;rounded=0;strokeColor=#000000;fontColor=#000000;entryX=0.5;entryY=1;entryDx=0;entryDy=0;exitX=1;exitY=0;exitDx=0;exitDy=0;" edge="1" parent="1" source="JDIDLbVQf-TIVtFOGQAv-2" target="JDIDLbVQf-TIVtFOGQAv-10">
          <mxGeometry relative="1" as="geometry">
            <mxPoint x="667" y="180" as="sourcePoint" />
            <mxPoint x="827" y="180" as="targetPoint" />
          </mxGeometry>
        </mxCell>
        <mxCell id="JDIDLbVQf-TIVtFOGQAv-17" value="" style="endArrow=none;html=1;rounded=0;strokeColor=#000000;fontColor=#000000;entryX=0;entryY=0;entryDx=0;entryDy=0;exitX=0.5;exitY=1;exitDx=0;exitDy=0;" edge="1" parent="1" source="JDIDLbVQf-TIVtFOGQAv-6" target="JDIDLbVQf-TIVtFOGQAv-1">
          <mxGeometry relative="1" as="geometry">
            <mxPoint x="23" y="170" as="sourcePoint" />
            <mxPoint x="183" y="170" as="targetPoint" />
          </mxGeometry>
        </mxCell>
        <mxCell id="JDIDLbVQf-TIVtFOGQAv-18" value="&lt;font color=&quot;#0000cc&quot;&gt;MARCA&lt;/font&gt;" style="ellipse;whiteSpace=wrap;html=1;align=center;strokeColor=#0000CC;fontColor=#000000;fillColor=#FFFFFF;" vertex="1" parent="1">
          <mxGeometry x="140" y="120" width="100" height="40" as="geometry" />
        </mxCell>
        <mxCell id="JDIDLbVQf-TIVtFOGQAv-19" value="&lt;font color=&quot;#0000cc&quot;&gt;MODELÓ&amp;nbsp;&lt;/font&gt;" style="ellipse;whiteSpace=wrap;html=1;align=center;strokeColor=#0000CC;fontColor=#000000;fillColor=#FFFFFF;" vertex="1" parent="1">
          <mxGeometry x="200" y="240" width="100" height="40" as="geometry" />
        </mxCell>
        <mxCell id="JDIDLbVQf-TIVtFOGQAv-22" value="&lt;font color=&quot;#0000cc&quot;&gt;COLOR&lt;/font&gt;" style="ellipse;whiteSpace=wrap;html=1;align=center;strokeColor=#0000CC;fontColor=#000000;fillColor=#FFFFFF;" vertex="1" parent="1">
          <mxGeometry x="10" y="280" width="100" height="40" as="geometry" />
        </mxCell>
        <mxCell id="JDIDLbVQf-TIVtFOGQAv-23" value="&lt;font color=&quot;#0000cc&quot;&gt;PRECIO&lt;/font&gt;" style="ellipse;whiteSpace=wrap;html=1;align=center;strokeColor=#0000CC;fontColor=#000000;fillColor=#FFFFFF;" vertex="1" parent="1">
          <mxGeometry x="250" y="160" width="100" height="40" as="geometry" />
        </mxCell>
        <mxCell id="JDIDLbVQf-TIVtFOGQAv-24" value="" style="endArrow=none;html=1;rounded=0;strokeColor=#0000CC;fontColor=#0000CC;entryX=0;entryY=1;entryDx=0;entryDy=0;exitX=0.5;exitY=0;exitDx=0;exitDy=0;exitPerimeter=0;" edge="1" parent="1" source="JDIDLbVQf-TIVtFOGQAv-22" target="JDIDLbVQf-TIVtFOGQAv-1">
          <mxGeometry relative="1" as="geometry">
            <mxPoint x="50" y="280" as="sourcePoint" />
            <mxPoint x="210" y="280" as="targetPoint" />
          </mxGeometry>
        </mxCell>
        <mxCell id="JDIDLbVQf-TIVtFOGQAv-25" value="" style="endArrow=none;html=1;rounded=0;strokeColor=#0000CC;fontColor=#0000CC;entryX=0.5;entryY=0;entryDx=0;entryDy=0;exitX=0.5;exitY=1;exitDx=0;exitDy=0;" edge="1" parent="1" source="JDIDLbVQf-TIVtFOGQAv-18" target="JDIDLbVQf-TIVtFOGQAv-1">
          <mxGeometry relative="1" as="geometry">
            <mxPoint x="70" y="290" as="sourcePoint" />
            <mxPoint x="83" y="250" as="targetPoint" />
          </mxGeometry>
        </mxCell>
        <mxCell id="JDIDLbVQf-TIVtFOGQAv-26" value="" style="endArrow=none;html=1;rounded=0;strokeColor=#0000CC;fontColor=#0000CC;entryX=1;entryY=0;entryDx=0;entryDy=0;exitX=0.5;exitY=1;exitDx=0;exitDy=0;" edge="1" parent="1" target="JDIDLbVQf-TIVtFOGQAv-1">
          <mxGeometry relative="1" as="geometry">
            <mxPoint x="250" y="180" as="sourcePoint" />
            <mxPoint x="183" y="220" as="targetPoint" />
          </mxGeometry>
        </mxCell>
        <mxCell id="JDIDLbVQf-TIVtFOGQAv-27" value="" style="endArrow=none;html=1;rounded=0;strokeColor=#0000CC;fontColor=#0000CC;entryX=1;entryY=1;entryDx=0;entryDy=0;exitX=0;exitY=0.5;exitDx=0;exitDy=0;" edge="1" parent="1" source="JDIDLbVQf-TIVtFOGQAv-19" target="JDIDLbVQf-TIVtFOGQAv-1">
          <mxGeometry relative="1" as="geometry">
            <mxPoint x="260" y="190" as="sourcePoint" />
            <mxPoint x="183" y="210" as="targetPoint" />
          </mxGeometry>
        </mxCell>
        <mxCell id="JDIDLbVQf-TIVtFOGQAv-28" value="&lt;font color=&quot;#0000cc&quot;&gt;NOMBRE&lt;/font&gt;" style="ellipse;whiteSpace=wrap;html=1;align=center;strokeColor=#0000CC;fontColor=#000000;fillColor=#FFFFFF;" vertex="1" parent="1">
          <mxGeometry x="580" y="120" width="100" height="40" as="geometry" />
        </mxCell>
        <mxCell id="JDIDLbVQf-TIVtFOGQAv-29" value="&lt;font color=&quot;#0000cc&quot;&gt;DIRECCIÓN&amp;nbsp;&lt;/font&gt;" style="ellipse;whiteSpace=wrap;html=1;align=center;strokeColor=#0000CC;fontColor=#000000;fillColor=#FFFFFF;" vertex="1" parent="1">
          <mxGeometry x="490" y="160" width="100" height="40" as="geometry" />
        </mxCell>
        <mxCell id="JDIDLbVQf-TIVtFOGQAv-30" value="&lt;font color=&quot;#0000cc&quot;&gt;RFC&lt;/font&gt;" style="ellipse;whiteSpace=wrap;html=1;align=center;strokeColor=#0000CC;fontColor=#000000;fillColor=#FFFFFF;" vertex="1" parent="1">
          <mxGeometry x="500" y="240" width="100" height="40" as="geometry" />
        </mxCell>
        <mxCell id="JDIDLbVQf-TIVtFOGQAv-31" value="&lt;font color=&quot;#0000cc&quot;&gt;CIUDAD&lt;/font&gt;" style="ellipse;whiteSpace=wrap;html=1;align=center;strokeColor=#0000CC;fontColor=#000000;fillColor=#FFFFFF;" vertex="1" parent="1">
          <mxGeometry x="727" y="280" width="100" height="40" as="geometry" />
        </mxCell>
        <mxCell id="JDIDLbVQf-TIVtFOGQAv-32" value="&lt;font color=&quot;#0000cc&quot;&gt;TELÉFONO&amp;nbsp;&lt;/font&gt;" style="ellipse;whiteSpace=wrap;html=1;align=center;strokeColor=#0000CC;fontColor=#000000;fillColor=#FFFFFF;" vertex="1" parent="1">
          <mxGeometry x="600" y="280" width="100" height="40" as="geometry" />
        </mxCell>
        <mxCell id="JDIDLbVQf-TIVtFOGQAv-33" value="" style="endArrow=none;html=1;rounded=0;strokeColor=#0000CC;fontColor=#0000CC;exitX=1;exitY=1;exitDx=0;exitDy=0;" edge="1" parent="1" source="JDIDLbVQf-TIVtFOGQAv-2">
          <mxGeometry relative="1" as="geometry">
            <mxPoint x="620" y="279" as="sourcePoint" />
            <mxPoint x="780" y="279" as="targetPoint" />
          </mxGeometry>
        </mxCell>
        <mxCell id="JDIDLbVQf-TIVtFOGQAv-34" value="" style="endArrow=none;html=1;rounded=0;strokeColor=#0000CC;fontColor=#0000CC;exitX=0.5;exitY=1;exitDx=0;exitDy=0;entryX=0.5;entryY=0;entryDx=0;entryDy=0;" edge="1" parent="1" source="JDIDLbVQf-TIVtFOGQAv-2" target="JDIDLbVQf-TIVtFOGQAv-32">
          <mxGeometry relative="1" as="geometry">
            <mxPoint x="740" y="250" as="sourcePoint" />
            <mxPoint x="790" y="289" as="targetPoint" />
          </mxGeometry>
        </mxCell>
        <mxCell id="JDIDLbVQf-TIVtFOGQAv-35" value="" style="endArrow=none;html=1;rounded=0;strokeColor=#0000CC;fontColor=#0000CC;exitX=0;exitY=1;exitDx=0;exitDy=0;entryX=1;entryY=0.5;entryDx=0;entryDy=0;" edge="1" parent="1" source="JDIDLbVQf-TIVtFOGQAv-2" target="JDIDLbVQf-TIVtFOGQAv-30">
          <mxGeometry relative="1" as="geometry">
            <mxPoint x="690" y="250" as="sourcePoint" />
            <mxPoint x="660" y="290" as="targetPoint" />
          </mxGeometry>
        </mxCell>
        <mxCell id="JDIDLbVQf-TIVtFOGQAv-36" value="" style="endArrow=none;html=1;rounded=0;strokeColor=#0000CC;fontColor=#0000CC;exitX=0;exitY=0;exitDx=0;exitDy=0;" edge="1" parent="1" source="JDIDLbVQf-TIVtFOGQAv-2">
          <mxGeometry relative="1" as="geometry">
            <mxPoint x="640" y="250" as="sourcePoint" />
            <mxPoint x="590" y="180" as="targetPoint" />
          </mxGeometry>
        </mxCell>
        <mxCell id="JDIDLbVQf-TIVtFOGQAv-37" value="" style="endArrow=none;html=1;rounded=0;strokeColor=#0000CC;fontColor=#0000CC;exitX=0.5;exitY=0;exitDx=0;exitDy=0;entryX=0.604;entryY=1.055;entryDx=0;entryDy=0;entryPerimeter=0;" edge="1" parent="1" source="JDIDLbVQf-TIVtFOGQAv-2" target="JDIDLbVQf-TIVtFOGQAv-28">
          <mxGeometry relative="1" as="geometry">
            <mxPoint x="640" y="210" as="sourcePoint" />
            <mxPoint x="600" y="190" as="targetPoint" />
          </mxGeometry>
        </mxCell>
        <mxCell id="JDIDLbVQf-TIVtFOGQAv-38" value="n" style="text;strokeColor=none;fillColor=none;spacingLeft=4;spacingRight=4;overflow=hidden;rotatable=0;points=[[0,0.5],[1,0.5]];portConstraint=eastwest;fontSize=12;fontColor=#0000CC;" vertex="1" parent="1">
          <mxGeometry x="180" y="200" width="20" height="30" as="geometry" />
        </mxCell>
        <mxCell id="JDIDLbVQf-TIVtFOGQAv-39" value="1" style="text;strokeColor=none;fillColor=none;spacingLeft=4;spacingRight=4;overflow=hidden;rotatable=0;points=[[0,0.5],[1,0.5]];portConstraint=eastwest;fontSize=12;fontColor=#0000CC;" vertex="1" parent="1">
          <mxGeometry x="610" y="200" width="20" height="30" as="geometry" />
        </mxCell>
        <mxCell id="JDIDLbVQf-TIVtFOGQAv-40" value="1" style="text;strokeColor=none;fillColor=none;spacingLeft=4;spacingRight=4;overflow=hidden;rotatable=0;points=[[0,0.5],[1,0.5]];portConstraint=eastwest;fontSize=12;fontColor=#0000CC;" vertex="1" parent="1">
          <mxGeometry x="610" y="220" width="20" height="30" as="geometry" />
        </mxCell>
        <mxCell id="JDIDLbVQf-TIVtFOGQAv-41" value="1" style="text;strokeColor=none;fillColor=none;spacingLeft=4;spacingRight=4;overflow=hidden;rotatable=0;points=[[0,0.5],[1,0.5]];portConstraint=eastwest;fontSize=12;fontColor=#0000CC;" vertex="1" parent="1">
          <mxGeometry x="183" y="220" width="20" height="30" as="geometry" />
        </mxCell>
        <mxCell id="JDIDLbVQf-TIVtFOGQAv-42" value="1" style="text;strokeColor=none;fillColor=none;spacingLeft=4;spacingRight=4;overflow=hidden;rotatable=0;points=[[0,0.5],[1,0.5]];portConstraint=eastwest;fontSize=12;fontColor=#0000CC;" vertex="1" parent="1">
          <mxGeometry x="120" y="570" width="20" height="30" as="geometry" />
        </mxCell>
        <mxCell id="JDIDLbVQf-TIVtFOGQAv-43" value="n" style="text;strokeColor=none;fillColor=none;spacingLeft=4;spacingRight=4;overflow=hidden;rotatable=0;points=[[0,0.5],[1,0.5]];portConstraint=eastwest;fontSize=12;fontColor=#0000CC;" vertex="1" parent="1">
          <mxGeometry x="130" y="240" width="20" height="30" as="geometry" />
        </mxCell>
        <mxCell id="JDIDLbVQf-TIVtFOGQAv-44" value="&lt;font color=&quot;#ff0000&quot;&gt;ACEITE&lt;/font&gt;" style="ellipse;whiteSpace=wrap;html=1;align=center;strokeColor=#FF0000;fontColor=#0000CC;fillColor=#FFFFFF;" vertex="1" parent="1">
          <mxGeometry x="150" y="340" width="100" height="40" as="geometry" />
        </mxCell>
        <mxCell id="JDIDLbVQf-TIVtFOGQAv-45" value="CAMBIOS" style="ellipse;shape=doubleEllipse;margin=3;whiteSpace=wrap;html=1;align=center;strokeColor=#FF0000;fontColor=#FF0000;fillColor=#FFFFFF;" vertex="1" parent="1">
          <mxGeometry x="240" y="410" width="100" height="40" as="geometry" />
        </mxCell>
        <mxCell id="JDIDLbVQf-TIVtFOGQAv-46" value="&lt;font color=&quot;#ff0000&quot;&gt;FRENOS&lt;/font&gt;" style="ellipse;whiteSpace=wrap;html=1;align=center;strokeColor=#FF0000;fontColor=#0000CC;fillColor=#FFFFFF;" vertex="1" parent="1">
          <mxGeometry x="270" y="340" width="100" height="40" as="geometry" />
        </mxCell>
        <mxCell id="JDIDLbVQf-TIVtFOGQAv-47" value="&lt;font color=&quot;#ff0000&quot;&gt;OTROS&lt;/font&gt;" style="ellipse;whiteSpace=wrap;html=1;align=center;strokeColor=#FF0000;fontColor=#0000CC;fillColor=#FFFFFF;" vertex="1" parent="1">
          <mxGeometry x="400" y="390" width="100" height="40" as="geometry" />
        </mxCell>
        <mxCell id="JDIDLbVQf-TIVtFOGQAv-48" value="1" style="text;strokeColor=none;fillColor=none;spacingLeft=4;spacingRight=4;overflow=hidden;rotatable=0;points=[[0,0.5],[1,0.5]];portConstraint=eastwest;fontSize=12;fontColor=#0000CC;" vertex="1" parent="1">
          <mxGeometry x="140" y="460" width="20" height="30" as="geometry" />
        </mxCell>
        <mxCell id="JDIDLbVQf-TIVtFOGQAv-49" value="&lt;span style=&quot;border-bottom: 1px dotted&quot;&gt;CODIGO&lt;/span&gt;" style="ellipse;whiteSpace=wrap;html=1;align=center;strokeColor=#FF0000;fontColor=#FF0000;fillColor=#FFFFFF;" vertex="1" parent="1">
          <mxGeometry x="150" y="490" width="100" height="40" as="geometry" />
        </mxCell>
        <mxCell id="JDIDLbVQf-TIVtFOGQAv-51" value="" style="endArrow=none;html=1;rounded=0;strokeColor=#FF0000;fontColor=#FF0000;entryX=0.5;entryY=0;entryDx=0;entryDy=0;" edge="1" parent="1" target="JDIDLbVQf-TIVtFOGQAv-49">
          <mxGeometry relative="1" as="geometry">
            <mxPoint x="183" y="429" as="sourcePoint" />
            <mxPoint x="343" y="429" as="targetPoint" />
            <Array as="points">
              <mxPoint x="200" y="429" />
            </Array>
          </mxGeometry>
        </mxCell>
        <mxCell id="JDIDLbVQf-TIVtFOGQAv-52" value="" style="endArrow=none;html=1;rounded=0;strokeColor=#FF0000;fontColor=#FF0000;entryX=0.036;entryY=0.725;entryDx=0;entryDy=0;entryPerimeter=0;" edge="1" parent="1" target="JDIDLbVQf-TIVtFOGQAv-45">
          <mxGeometry relative="1" as="geometry">
            <mxPoint x="160" y="440" as="sourcePoint" />
            <mxPoint x="320" y="440" as="targetPoint" />
          </mxGeometry>
        </mxCell>
        <mxCell id="JDIDLbVQf-TIVtFOGQAv-53" value="" style="endArrow=none;html=1;rounded=0;strokeColor=#FF0000;fontColor=#FF0000;" edge="1" parent="1">
          <mxGeometry relative="1" as="geometry">
            <mxPoint x="340" y="429" as="sourcePoint" />
            <mxPoint x="410" y="420" as="targetPoint" />
          </mxGeometry>
        </mxCell>
        <mxCell id="JDIDLbVQf-TIVtFOGQAv-54" value="" style="endArrow=none;html=1;rounded=0;strokeColor=#FF0000;fontColor=#FF0000;exitX=0.5;exitY=0;exitDx=0;exitDy=0;entryX=0.5;entryY=1;entryDx=0;entryDy=0;" edge="1" parent="1" source="JDIDLbVQf-TIVtFOGQAv-45" target="JDIDLbVQf-TIVtFOGQAv-46">
          <mxGeometry relative="1" as="geometry">
            <mxPoint x="350" y="439" as="sourcePoint" />
            <mxPoint x="420" y="430" as="targetPoint" />
          </mxGeometry>
        </mxCell>
        <mxCell id="JDIDLbVQf-TIVtFOGQAv-55" value="" style="endArrow=none;html=1;rounded=0;strokeColor=#FF0000;fontColor=#FF0000;exitX=0.284;exitY=0.045;exitDx=0;exitDy=0;exitPerimeter=0;" edge="1" parent="1" source="JDIDLbVQf-TIVtFOGQAv-45">
          <mxGeometry relative="1" as="geometry">
            <mxPoint x="300" y="420" as="sourcePoint" />
            <mxPoint x="210" y="380" as="targetPoint" />
          </mxGeometry>
        </mxCell>
        <mxCell id="JDIDLbVQf-TIVtFOGQAv-56" value="n" style="text;strokeColor=none;fillColor=none;spacingLeft=4;spacingRight=4;overflow=hidden;rotatable=0;points=[[0,0.5],[1,0.5]];portConstraint=eastwest;fontSize=12;fontColor=#FF0000;" vertex="1" parent="1">
          <mxGeometry x="90" y="240" width="20" height="30" as="geometry" />
        </mxCell>
        <mxCell id="JDIDLbVQf-TIVtFOGQAv-57" value="m" style="text;strokeColor=none;fillColor=none;spacingLeft=4;spacingRight=4;overflow=hidden;rotatable=0;points=[[0,0.5],[1,0.5]];portConstraint=eastwest;fontSize=12;fontColor=#FF0000;" vertex="1" parent="1">
          <mxGeometry x="90" y="570" width="20" height="30" as="geometry" />
        </mxCell>
      </root>
    </mxGraphModel>
  </diagram>
</mxfile>
